# xmcd
#
# Track frame offsets: 
#        182
#        15990
#        42197
#        67360
#        88717
#        130860
#        162622
#        187830
#
# Disc length: 3660 seconds
#
# Revision: 2
# Processed by: cddbd v1.5.2PL0 Copyright (c) Steve Scherf et al.
# Submitted via: ExactAudioCopy v1.0b1
#
DISCID=660e4a08
DTITLE=Blind Faith - Can't Find My Way Home
DYEAR=1969
DGENRE=Blues
TTITLE0=Instrumental Jam
TTITLE1=Can't Find My Way Home
TTITLE2=Well Alright
TTITLE3=Sleeping In The Ground
TTITLE4=Sea Of Joy
TTITLE5=Under My Thumb
TTITLE6=Presence Of The Lord
TTITLE7=Do What You Like
EXTD=YEAR: 1969
EXTT0=
EXTT1=
EXTT2=
EXTT3=
EXTT4=
EXTT5=
EXTT6=
EXTT7=
PLAYORDER=
